<svg xmlns="http://www.w3.org/2000/svg" xmlns:xlink="http://www.w3.org/1999/xlink" viewBox="0 0 350 330">
  <g id="first-step">
    <animate xlink:href="#first-step"
          attributeName="opacity"
          from="1"
          to="0"
          dur="0.8s"
          fill="freeze"
          begin="2.5s"/>
    <g id="cabin" transform='translate(175 217)'>
      <g fill='none' stroke='#fff' stroke-linecap='round' stroke-width='2'>
        <animateTransform
          attributeName="transform"
          type="scale"
          values="1 1;1 0.8;1 1"
          dur="2.5s"
          repeatCount="indefinite"
          additive="replace"/>
        <g transform='translate(-175 -217)'>
          <path d="M175.44 249.281H223.8C226.863 249.279 229.831 248.217 232.201 246.276C234.57 244.335 236.195 241.633 236.8 238.631L240.54 220.311H172.36V246.201C172.363 247.017 172.688 247.798 173.265 248.376C173.842 248.953 174.624 249.278 175.44 249.281V249.281Z"  stroke-linejoin="round"/>
          <path d="M235.79 241.691H226.57C224.371 241.683 222.265 240.804 220.713 239.246C219.161 237.688 218.29 235.579 218.29 233.381V220.311"  stroke-miterlimit="10" />
          <path d="M185.64 231.88H183.59C182.678 231.885 181.806 232.251 181.163 232.897C180.521 233.544 180.16 234.418 180.16 235.33V238.25C180.16 239.161 180.521 240.036 181.163 240.682C181.806 241.329 182.678 241.695 183.59 241.7H185.64C186.552 241.695 187.424 241.329 188.067 240.682C188.709 240.036 189.07 239.161 189.07 238.25V235.33C189.07 234.418 188.709 233.544 188.067 232.897C187.424 232.251 186.552 231.885 185.64 231.88V231.88Z" stroke-linejoin="round"/>
        </g>
      </g>
    </g>
    <path id="circle-fill" d="M205 227.08C248.38 227.08 279.86 211.53 279.86 190.08C279.86 168.63 248.38 153.08 205 153.08C177.06 153.08 149.64 166.61 131.54 177.95C129.493 179.238 127.805 181.023 126.636 183.14C125.466 185.257 124.853 187.637 124.853 190.055C124.853 192.474 125.466 194.853 126.636 196.97C127.805 199.087 129.493 200.872 131.54 202.16C149.63 213.49 177.06 227.03 205 227.03" fill="#068E4D"/>
    <path id="circle-stroke" d="M205 227.08C248.38 227.08 279.86 211.53 279.86 190.08C279.86 168.63 248.38 153.08 205 153.08C177.06 153.08 149.64 166.61 131.54 177.95C129.493 179.238 127.805 181.023 126.636 183.14C125.466 185.257 124.853 187.637 124.853 190.055C124.853 192.474 125.466 194.853 126.636 196.97C127.805 199.087 129.493 200.872 131.54 202.16C149.63 213.54 177.06 227.08 205 227.08Z" stroke="white" stroke-width="2"/>
    <path id="part-top" d="M204.888 194.5C176.658 194.5 150.24 185.51 133.5 189.75C129.55 190.75 126.088 188.43 126.008 190.11C125.927 187.839 126.445 185.588 127.51 183.581C128.576 181.574 130.152 179.884 132.078 178.68C148.818 168.18 176.658 154 204.888 154C249.698 154 278.528 170 278.528 189.75C278.528 189.87 278.528 189.99 278.528 190.12C278.158 182.17 249.418 194.5 204.888 194.5Z" fill="#36E69A"/>
    <path id="part-bottom" d="M134 190.941C150.74 195.211 176.76 201.121 204.99 201.121C249.13 201.121 278.15 196.86 279 189C280 209 249.5 227 204.99 225.801C176.76 225.801 148.92 211.611 132.18 201.121C130.44 200.026 128.988 198.53 127.944 196.759C126.9 194.988 125.615 191.053 125.5 189C125.76 190.61 145.5 193.73 132.18 189.001" fill="#068E4D"/>
    <path id="part-center" d="M131.99 186C148.73 181.73 176.57 176 204.8 176C249.33 176 278.06 182.43 278.41 190.38C278.41 190.55 278.41 190.72 278.41 190.89C277.56 198.75 248.96 205.06 204.81 205.06C176.58 205.06 148.74 199.3 132 195.06C128.21 194.06 126.21 192.53 126 190.93V190.42C126.13 188.73 128.15 187.06 132.1 186.05" fill="#25B774" transform="skew(20,10)"/>
    <animate
        xlink:href="#part-center"
        attributeName="d"
        values="M131.99 186C148.73 181.73 176.57 176 204.8 176C249.33 176 278.06 182.43 278.41 190.38C278.41 190.55 278.41 190.72 278.41 190.89C277.56 198.75 248.96 205.06 204.81 205.06C176.58 205.06 148.74 199.3 132 195.06C128.21 194.06 126.21 192.53 126 190.93V190.42C126.13 188.73 128.15 187.06 132.1 186.05;M131.99 185C148.73 180.73 176.58 180 204.81 180C249.34 180 278.06 181.43 278.41 189.38C278.41 189.55 278.41 189.72 278.41 189.89C277.56 197.75 248.96 207.5 204.81 207.5C176.58 207.5 148.74 198.3 132 194.06C128.21 193.06 126.21 191.53 126 189.93V189.42C126.13 187.73 128.15 186.06 132.1 185.05;M131.99 186C148.73 181.73 176.57 176 204.8 176C249.33 176 278.06 182.43 278.41 190.38C278.41 190.55 278.41 190.72 278.41 190.89C277.56 198.75 248.96 205.06 204.81 205.06C176.58 205.06 148.74 199.3 132 195.06C128.21 194.06 126.21 192.53 126 190.93V190.42C126.13 188.73 128.15 187.06 132.1 186.05"
        dur="3s"
        repeatCount="indefinite"/>
    <g id="blade4">
      <path d="M123.23 173.34H132.39C132.823 173.34 133.252 173.425 133.651 173.591C134.051 173.757 134.414 174 134.72 174.307C135.026 174.614 135.268 174.977 135.432 175.378C135.597 175.778 135.681 176.207 135.68 176.64V182.35C135.681 182.783 135.597 183.212 135.432 183.612C135.268 184.012 135.026 184.376 134.72 184.683C134.414 184.989 134.051 185.232 133.651 185.398C133.252 185.564 132.823 185.65 132.39 185.65H115.57C115.22 185.65 114.884 185.511 114.637 185.263C114.389 185.016 114.25 184.68 114.25 184.33V182.33C114.253 179.948 115.199 177.664 116.882 175.979C118.566 174.294 120.848 173.345 123.23 173.34V173.34Z" fill="#068E4D" stroke="white" stroke-width="2" stroke-linecap="round" stroke-linejoin="round"/>
    </g>
    <animateTransform xlink:href="#blade4"
              attributeName="transform"
              type="translate"
              values="0,0;0,5;0,0"
              dur="2.5s"
              repeatCount="indefinite"
              additive="replace"/>
    <g id="blade3">
      <path d="M123.23 207.39H132.39C132.823 207.39 133.252 207.305 133.651 207.139C134.051 206.973 134.414 206.729 134.72 206.423C135.026 206.116 135.268 205.752 135.432 205.352C135.597 204.952 135.681 204.523 135.68 204.09V198.38C135.681 197.947 135.597 197.518 135.432 197.118C135.268 196.718 135.026 196.354 134.72 196.047C134.414 195.741 134.051 195.497 133.651 195.331C133.252 195.166 132.823 195.08 132.39 195.08H115.57C115.22 195.08 114.884 195.219 114.637 195.467C114.389 195.714 114.25 196.05 114.25 196.4V198.4C114.253 200.782 115.199 203.065 116.882 204.751C118.566 206.436 120.848 207.385 123.23 207.39V207.39Z" fill="#068E4D" stroke="white" stroke-width="2" stroke-linecap="round" stroke-linejoin="round"/>
    </g>
    <animateTransform xlink:href="#blade3"
              attributeName="transform"
              type="translate"
              values="0,0;0,5;0,0"
              dur="2.5s"
              repeatCount="indefinite"
              additive="replace"/>
    <g id="blade2" transform="translate(0,5)">
      <path d="M123.23 173.34H132.39C132.823 173.34 133.252 173.425 133.651 173.591C134.051 173.757 134.414 174 134.72 174.307C135.026 174.614 135.268 174.977 135.432 175.378C135.597 175.778 135.681 176.207 135.68 176.64V182.35C135.681 182.783 135.597 183.212 135.432 183.612C135.268 184.012 135.026 184.376 134.72 184.683C134.414 184.989 134.051 185.232 133.651 185.398C133.252 185.564 132.823 185.65 132.39 185.65H115.57C115.22 185.65 114.884 185.511 114.637 185.263C114.389 185.016 114.25 184.68 114.25 184.33V182.33C114.253 179.948 115.199 177.664 116.882 175.979C118.566 174.294 120.848 173.345 123.23 173.34V173.34Z" fill="#068E4D" stroke="white" stroke-width="2" stroke-linecap="round" stroke-linejoin="round"/>
    </g>
    <animateTransform xlink:href="#blade2"
              attributeName="transform"
              type="translate"
              values="0,5;0,0;0,5"
              dur="2.5s"
              repeatCount="indefinite"
              additive="replace"/>
    <g id="blade1" transform="translate(0,5)">
      <path d="M123.23 207.39H132.39C132.823 207.39 133.252 207.305 133.651 207.139C134.051 206.973 134.414 206.729 134.72 206.423C135.026 206.116 135.268 205.752 135.432 205.352C135.597 204.952 135.681 204.523 135.68 204.09V198.38C135.681 197.947 135.597 197.518 135.432 197.118C135.268 196.718 135.026 196.354 134.72 196.047C134.414 195.741 134.051 195.497 133.651 195.331C133.252 195.166 132.823 195.08 132.39 195.08H115.57C115.22 195.08 114.884 195.219 114.637 195.467C114.389 195.714 114.25 196.05 114.25 196.4V198.4C114.253 200.782 115.199 203.065 116.882 204.751C118.566 206.436 120.848 207.385 123.23 207.39V207.39Z" fill="#068E4D" stroke="white" stroke-width="2" stroke-linecap="round" stroke-linejoin="round"/>
    </g>
    <animateTransform xlink:href="#blade1"
              attributeName="transform"
              type="translate"
              values="0,5;0,0;0,5"
              dur="2.5s"
              repeatCount="indefinite"
              additive="replace"/>
    <line x1="68.95" y1="107.8" x2="131.86" y2="107.8" fill="none" stroke="#fff" stroke-linecap="round" stroke-miterlimit="10" stroke-width="2" id="cloud-line1" transform="translate(300, 0)" opacity="0"/>
    <animateTransform xlink:href="#cloud-line1"
              attributeName="transform"
              type="translate"
              from="300,0"
              to="-300,0"
              dur="5.6s"
              repeatCount="1"
              additive="replace"
              fill="freeze"/>
    <animate xlink:href="#cloud-line1"
              attributeName="opacity"
              from="0"
              to="1"
              dur="0.8s"
              begin="0.1s"
              fill="freeze"/>
    <g>
      <path d="M41.77,97.54H77.06a12.4,12.4,0,1,1,24.8,0h17.93" fill="none" stroke="#fff" stroke-linecap="round" stroke-miterlimit="10" stroke-width="2" id="cloud1" transform="translate(300, 0)" opacity="0"/>
      <animateTransform xlink:href="#cloud1"
              attributeName="transform"
              type="translate"
              from="300,0"
              to="-300,0"
              dur="5.5s"
              repeatCount="1"
              additive="replace"
              fill="freeze"/>
      <animate xlink:href="#cloud1"
              attributeName="opacity"
              from="0"
              to="1"
              dur="0.8s"
              begin="0.1s"
              fill="freeze"/>
    </g>
    <line x1="258.96" y1="93.19" x2="298.74" y2="93.19" fill="none" stroke="#fff" stroke-linecap="round" stroke-miterlimit="10" stroke-width="2" id="cloud-line2" transform="translate(300,0)" opacity="0"/>
    <animateTransform xlink:href="#cloud-line2"
              attributeName="transform"
              type="translate"
              from="300,0"
              to="-350,0"
              dur="5.5s"
              repeatCount="1"
              additive="replace"
              fill="freeze"/>
    <animate xlink:href="#cloud-line2"
              attributeName="opacity"
              from="0"
              to="1"
              dur="0.8s"
              begin="2s"
              fill="freeze"/>
    <g id="cloud2" transform="translate(300,0)" opacity="0">
      <path d="M278.75,82.91H251.39a12.4,12.4,0,1,0-24.8,0H208.65" fill="none" stroke="#fff" stroke-linecap="round" stroke-miterlimit="10" stroke-width="2"/>
      <line x1="287.01" y1="82.91" x2="309.21" y2="82.91" fill="none" stroke="#fff" stroke-linecap="round" stroke-miterlimit="10" stroke-width="2"/>
    </g>
    <animateTransform xlink:href="#cloud2"
              attributeName="transform"
              type="translate"
              from="300,0"
              to="-350,0"
              dur="5.5s"
              repeatCount="1"
              additive="replace"
              fill="freeze"/>
    <animate xlink:href="#cloud2"
              attributeName="opacity"
              from="0"
              to="1"
              dur="0.8s"
              fill="freeze"
              begin="2s"/>
    <g transform="translate(106 179)">
      <g>
          <animateTransform
            attributeName="transform"
            type="scale"
            values="1 1;0.9 1;1 1"
            dur="0.2s"
            repeatCount="indefinite"/>
        <g transform="translate(-106 -179)">
          <line x1="106.25" y1="179.49" x2="84.05" y2="179.49" fill="none" stroke="#fff" stroke-linecap="round" stroke-miterlimit="10" stroke-width="2" id="engine-line1"/>
        </g>
      </g>
    </g>
    <g transform="translate(106 201)">
      <g>
          <animateTransform
            attributeName="transform"
            type="scale"
            values="1 1;0.9 1;1 1"
            dur="0.2s"
            repeatCount="indefinite"/>
        <g transform="translate(-106 -201)">
          <line x1="106.25" y1="201.23" x2="84.05" y2="201.23" fill="none" stroke="#fff" stroke-linecap="round" stroke-miterlimit="10" stroke-width="2" id="engine-line2"/>
        </g>
      </g>
    </g>
    <g transform="translate(106 190)">
      <g>
          <animateTransform
            attributeName="transform"
            type="scale"
            values="1 1;0.9 1;1 1"
            dur="0.2s"
            repeatCount="indefinite"/>
        <g transform="translate(-106 -190)">
          <line x1="106.25" y1="190.98" x2="68.77" y2="190.98" fill="none" stroke="#fff" stroke-linecap="round" stroke-miterlimit="10" stroke-width="2" id="engine-line3"/>
        </g>
      </g>
    </g>
  </g>
  <g id="second-step">
    <defs>
      <clipPath id="window">
        <path d="M 275 225.43 C 275 225.43 275 225.43 275 225.43 C 279.65 225.404 284.105 223.537 287.384 220.24 C 290.663 216.944 292.507 212.48 292.51 207.83 C 292.51 204.678 292.51 201.525 292.51 198.373 C 292.51 195.22 292.51 192.067 292.51 188.915 C 292.51 185.762 292.51 182.61 292.51 179.458 C 292.51 176.305 292.51 173.153 292.51 170 C 292.505 165.353 290.659 160.892 287.38 157.6 C 284.1 154.307 279.647 152.444 275 152.42 L 257.87 152.42 C 253.221 152.441 248.765 154.303 245.484 157.596 C 242.202 160.889 240.355 165.351 240.35 170 L 240.35 207.85 C 240.355 212.499 242.202 216.961 245.484 220.254 C 248.765 223.547 253.221 225.409 257.87 225.43 L 275 225.43"/>
      </clipPath>
    </defs>
    <g id="skis" opacity="0" transform="translate(-100,0)">
      <path d="M91.14,327.79a2.2,2.2,0,0,1-2-2.36l13.66-193.17c1.1-15.49-4.8-21.92-8.75-24.47a1.35,1.35,0,0,1,.53-2.45C103,104,122.18,104,120,134.19L106.43,326.67a2.2,2.2,0,0,1-2.35,2Z" fill="#fff"/>
      <path d="M124.5,328.17a2.2,2.2,0,0,1-2.17-2.23l2.24-193.63c0.19-15.53-6.07-21.61-10.16-23.91a1.35,1.35,0,0,1,.39-2.47c8.36-1.9,27.49-3,27.15,27.28l-2.25,192.93a2.2,2.2,0,0,1-2.22,2.18Z" fill="#fff"/>
    </g>
    <animateTransform
             xlink:href="#skis"
             attributeName="transform"
             type="translate"
             from="-100,0"
             to="0,0"
             dur="0.5s"
             begin="2.6s"
             repeatCount="1"
             fill="freeze"
             additive="replace"/>
    <animate
       xlink:href="#skis"
       attributeName="opacity"
       from="0"
       to="1"
       dur="0.3s"
       repeatCount="1"
       begin="2.6s"
       fill="freeze"
       />
    <g transform="translate(175 217)">
      <g>
        <animateTransform
              attributeName="transform"
              type="scale"
              values="1 1;1 0.8;1 1"
              dur="2.5s"
              repeatCount="1"
              fill="freeze"
              additive="replace"/>
        <g transform="translate(-175 -217)">
          <path d="M 204.25 241.7 C 205.162 241.695 206.034 241.329 206.677 240.682 C 207.319 240.036 207.68 239.161 207.68 238.25 C 207.68 237.277 207.68 236.303 207.68 235.33 C 207.681 234.878 207.594 234.431 207.422 234.013 C 207.25 233.595 206.998 233.215 206.68 232.895 C 206.361 232.574 205.983 232.32 205.566 232.146 C 205.149 231.971 204.702 231.881 204.25 231.88 C 204.25 231.88 204.25 231.88 204.25 231.88 C 204.25 231.88 204.25 231.88 204.25 231.88 L 202.2 231.88 C 201.288 231.885 200.416 232.251 199.773 232.897 C 199.131 233.544 198.77 234.418 198.77 235.33 L 198.77 238.25 C 198.77 239.161 199.131 240.036 199.773 240.682 C 200.416 241.329 201.288 241.695 202.2 241.7 L 204.25 241.7" fill="none" stroke="#fff" stroke-width="2" id="plane-window" />
        </g>
      </g>
    </g>
    <animate
        xlink:href="#plane-window"
        attributeName="d"
        from="M 204.25 241.7 C 205.162 241.695 206.034 241.329 206.677 240.682 C 207.319 240.036 207.68 239.161 207.68 238.25 C 207.68 237.277 207.68 236.303 207.68 235.33 C 207.681 234.878 207.594 234.431 207.422 234.013 C 207.25 233.595 206.998 233.215 206.68 232.895 C 206.361 232.574 205.983 232.32 205.566 232.146 C 205.149 231.971 204.702 231.881 204.25 231.88 C 204.25 231.88 204.25 231.88 204.25 231.88 C 204.25 231.88 204.25 231.88 204.25 231.88 L 202.2 231.88 C 201.288 231.885 200.416 232.251 199.773 232.897 C 199.131 233.544 198.77 234.418 198.77 235.33 L 198.77 238.25 C 198.77 239.161 199.131 240.036 199.773 240.682 C 200.416 241.329 201.288 241.695 202.2 241.7 L 204.25 241.7"
        to="M 275 225.43 C 275 225.43 275 225.43 275 225.43 C 279.65 225.404 284.105 223.537 287.384 220.24 C 290.663 216.944 292.507 212.48 292.51 207.83 C 292.51 204.678 292.51 201.525 292.51 198.373 C 292.51 195.22 292.51 192.067 292.51 188.915 C 292.51 185.762 292.51 182.61 292.51 179.458 C 292.51 176.305 292.51 173.153 292.51 170 C 292.505 165.353 290.659 160.892 287.38 157.6 C 284.1 154.307 279.647 152.444 275 152.42 L 257.87 152.42 C 253.221 152.441 248.765 154.303 245.484 157.596 C 242.202 160.889 240.355 165.351 240.35 170 L 240.35 207.85 C 240.355 212.499 242.202 216.961 245.484 220.254 C 248.765 223.547 253.221 225.409 257.87 225.43 L 275 225.43"
        dur="0.5s"
        fill="freeze"
        begin="2.5s"
        repeatCount="1"
        />
    <g clip-path="url(#window)">
      <g transform="translate(300 160)" opacity="0" id="second-clouds">
        <line x1="28.18" y1="38.34" x2="91.09" y2="38.34" fill="none" stroke="#fff" stroke-linecap="round" stroke-miterlimit="10" stroke-width="2"/>
        <path d="M41.77,97.54H77.06a12.4,12.4,0,1,1,24.8,0h17.93" transform="translate(-40.77 -69.46)" fill="none" stroke="#fff" stroke-linecap="round" stroke-miterlimit="10" stroke-width="2"/>
        <line x1="218.19" y1="23.72" x2="257.97" y2="23.72" fill="none" stroke="#fff" stroke-linecap="round" stroke-miterlimit="10" stroke-width="2"/>
        <path d="M278.75,82.91H251.39a12.4,12.4,0,1,0-24.8,0H208.65" transform="translate(-40.77 -69.46)" fill="none" stroke="#fff" stroke-linecap="round" stroke-miterlimit="10" stroke-width="2"/>
        <line x1="246.24" y1="13.45" x2="268.43" y2="13.45" fill="none" stroke="#fff" stroke-linecap="round" stroke-miterlimit="10" stroke-width="2"/>
      </g>
      <animateTransform
              xlink:href="#second-clouds"
              attributeName="transform"
              type="translate"
              from="300 160"
              to="-50 160"
              dur="4s"
              repeatCount="indefinite"
              additive="replace"/>
      <animate
        xlink:href="#second-clouds"
        attributeName="opacity"
        from="0"
        to="1"
        dur="0.5s"
        repeatCount="1"
        begin="2.5s"
        fill="freeze"
        />
    </g>
    <g id="chair" opacity="0" transform="translate(-100,0)">
      <path d="M257.5,259.82H196.76V245.63h55.09a9.92,9.92,0,0,1,9.9,9.93,4.26,4.26,0,0,1-4.25,4.25" fill="#a67ee5"/>
      <path d="M257.5,259.82H196.76V245.63h55.09a9.92,9.92,0,0,1,9.9,9.93A4.26,4.26,0,0,1,257.5,259.82Z" fill="none" stroke="#fff" stroke-miterlimit="10" stroke-width="2"/>
      <polygon points="185.47 328.31 171.5 328.31 165.19 286.72 179.16 286.72 185.47 328.31" fill="#a67ee5"/>
      <polygon points="185.47 328.31 171.5 328.31 165.19 286.72 179.16 286.72 185.47 328.31" fill="none" stroke="#fff" stroke-miterlimit="10" stroke-width="2"/>
      <polygon points="235.03 328.31 221.06 328.31 214.76 286.72 228.72 286.72 235.03 328.31" fill="#a67ee5"/>
      <polygon points="235.03 328.31 221.06 328.31 214.76 286.72 228.72 286.72 235.03 328.31" fill="none" stroke="#fff" stroke-miterlimit="10" stroke-width="2"/>
      <path d="M281.33,272.45H225.44a5.59,5.59,0,0,1-5.53-4.77l-10.86-72.24a17.71,17.71,0,0,0-12.49-31.31H141.48L141.16,267l15.77,23.35,47.19,8.39a12.3,12.3,0,0,0,4.22.75h73a13.53,13.53,0,0,0,0-27.06" fill="#a67ee5"/>
      <path d="M281.33,272.45H225.44a5.59,5.59,0,0,1-5.53-4.77l-10.86-72.24a17.71,17.71,0,0,0-12.49-31.31H141.48L141.16,267l15.77,23.35,47.19,8.39a12.3,12.3,0,0,0,4.22.75h73A13.53,13.53,0,0,0,281.33,272.45Z" fill="none" stroke="#fff" stroke-miterlimit="10" stroke-width="2"/>
      <path d="M162.42,267.69l-10.86-72.24a17.71,17.71,0,1,0-29-13.61,18,18,0,0,0,.79,5.25L138.65,289a12.36,12.36,0,0,0,12.21,10.54h73a13.53,13.53,0,0,0,0-27.05H167.95a5.62,5.62,0,0,1-5.53-4.78" fill="#a67ee5"/>
      <path d="M162.42,267.69l-10.86-72.24a17.71,17.71,0,1,0-29-13.61,18,18,0,0,0,.79,5.25L138.65,289a12.36,12.36,0,0,0,12.21,10.54h73a13.53,13.53,0,0,0,0-27.05H167.95A5.62,5.62,0,0,1,162.42,267.69Z" fill="none" stroke="#fff" stroke-miterlimit="10" stroke-width="2"/>
      <path d="M206.26,259.82h-72l-2.13-14.19H200.6a9.92,9.92,0,0,1,9.9,9.93,4.26,4.26,0,0,1-4.25,4.25" fill="#a67ee5"/>
      <path d="M206.26,259.82h-72l-2.13-14.19H200.6a9.92,9.92,0,0,1,9.9,9.93A4.26,4.26,0,0,1,206.26,259.82Z" fill="none" stroke="#fff" stroke-miterlimit="10" stroke-width="2"/>
      <line x1="151.57" y1="195.44" x2="209.05" y2="195.44" fill="none" stroke="#fff" stroke-linecap="round" stroke-miterlimit="10" stroke-width="2"/>
    </g>
    <animateTransform
             xlink:href="#chair"
             attributeName="transform"
             type="translate"
             from="-100,0"
             to="0,0"
             dur="0.5s"
             begin="2.5s"
             repeatCount="1"
             fill="freeze"
             additive="replace"/>
    <animate
       xlink:href="#chair"
       attributeName="opacity"
       from="0"
       to="1"
       dur="0.3s"
       repeatCount="1"
       begin="2.5s"
       fill="freeze"
       />
    <g id="flower" opacity="0">
      <g>
        <animateTransform
              id="flowerTranslate"
              attributeName="transform"
              type="translate"
              from="-100 328"
              to="150 328"
              dur="0.5s"
              begin="2.6s"
              repeatCount="1"
              fill="freeze"
              additive="replace"/>
        <animateTransform
            id="flowerRotate"
            attributeName="transform"
            type="rotate"
            values='0;5;-5;2;0'
            keySplines="0.33 0.46 0.51 1;
              0.33 0.46 0.51 1;
              0.33 0.46 0.51 1;
              0.33 0.46 0.51 1"
            calcMode="spline"
            dur="1.2s"
            begin="flowerTranslate.end"
            repeatCount="1"
            fill="freeze"
            additive="sum"/>
        <animateTransform
            attributeName="transform"
            type="rotate"
            values='0;2;-1;1;0'
            keySplines="0.33 0.46 0.51 1;
              0.33 0.46 0.51 1;
              0.33 0.46 0.51 1;
              0.33 0.46 0.51 1"
            calcMode="spline"
            dur="1.5s"
            begin="flowerRotate.end"
            repeatCount="indefinite"
            additive="sum"/>
        <g transform="translate(-150 -328)">
          <path d="M79.18,194A131,131,0,0,1,94.77,220.9a255,255,0,0,1-20.08-23.55,259,259,0,0,1-17.07-25.88A131.72,131.72,0,0,1,79.18,194" fill="#36e69a"/>
          <path d="M80.94,214.39a127.19,127.19,0,0,1,22.8,20.49A242.09,242.09,0,0,1,77.9,219.17a235.86,235.86,0,0,1-23.42-18.7,119.82,119.82,0,0,1,26.46,13.92" fill="#36e69a"/>
          <path d="M93.66,205.48a258.38,258.38,0,0,0,10.08,29.39,125.63,125.63,0,0,0-4.5-30.52,135.9,135.9,0,0,0-12.06-29.44,260.33,260.33,0,0,0,6.47,30.57" fill="#36e69a"/>
          <path d="M107.32,213.52a250.14,250.14,0,0,0,2.06,30.67,119.93,119.93,0,0,0,3.76-30.05,131.24,131.24,0,0,0-4-31.36,238.1,238.1,0,0,0-1.87,30.74" fill="#25b774"/>
          <path d="M83.08,229.56a121.93,121.93,0,0,1,26.29,14.64A225.91,225.91,0,0,1,81.21,235a228.11,228.11,0,0,1-26.37-12.69,113.61,113.61,0,0,1,28.25,7.29" fill="#25b774"/>
          <path d="M88.06,243.83A118.11,118.11,0,0,1,115.62,255a211,211,0,0,1-28.78-5.6,220.87,220.87,0,0,1-27.42-9.33,114,114,0,0,1,28.65,3.73" fill="#25b774"/>
          <path d="M118.71,224.79a238,238,0,0,0-3.1,30.25,117.11,117.11,0,0,0,8.82-28.54,127.44,127.44,0,0,0,1.42-31.19,213.92,213.92,0,0,0-7.15,29.48" fill="#25b774"/>
          <path d="M98.86,262a118.24,118.24,0,0,1,27.07,12.34,212.3,212.3,0,0,1-28.53-6.79,220.78,220.78,0,0,1-27-10.45A114.06,114.06,0,0,1,98.86,262" fill="#068e4d"/>
          <path d="M130.27,244.29a236.56,236.56,0,0,0-4.34,30.1,116.94,116.94,0,0,0,10-28.16,127.42,127.42,0,0,0,2.71-31.1,214.43,214.43,0,0,0-8.36,29.16" fill="#068e4d"/>
          <path d="M108.9,280.69a118.21,118.21,0,0,1,26.54,13.47,213.62,213.62,0,0,1-28.23-8,221.65,221.65,0,0,1-26.55-11.57,113.82,113.82,0,0,1,28.24,6.08" fill="#068e4d"/>
          <path d="M141,264.26a236.09,236.09,0,0,0-5.58,29.9,117.46,117.46,0,0,0,11.15-27.73,127.2,127.2,0,0,0,4-31A214.24,214.24,0,0,0,141,264.26" fill="#068e4d"/>
          <path d="M92.62,217.67A529.26,529.26,0,0,1,149.48,328" fill="none" stroke="#36e69a" stroke-linecap="round" stroke-linejoin="round" stroke-width="2"/>
        </g>
      </g>
    </g>
    <animate
       xlink:href="#flower"
       attributeName="opacity"
       from="0"
       to="1"
       dur="0.3s"
       repeatCount="1"
       begin="2.6s"
       fill="freeze"
       />
    <path id="mountain" d="M 290.16 327.971 L 245.1 327.971 C 244.759 327.682 212.247 296.224 211.8 296.224 M 211.8 296.224 C 211.353 296.224 212.141 295.936 211.8 296.224 Z M 211.8 296.224 L 199.255 307.319 M 199.255 307.319 C 198.942 307.59 199.668 307.319 199.255 307.319 Z M 199.255 307.319 C 198.842 307.319 199.568 307.59 199.255 307.319 Z M 199.255 307.319 C 198.822 306.953 178.148 286.163 177.58 286.163 M 177.58 286.163 C 177.012 286.163 178.013 285.796 177.58 286.163 Z M 177.58 286.163 C 177.268 286.435 148.899 312.793 148.485 312.793 M 148.485 312.793 C 148.071 312.793 148.797 313.065 148.485 312.793 Z M 148.485 312.793 C 148.17 312.504 144.003 309.002 143.575 309.002 C 143.147 309.002 125.165 328.802 124.85 329.091 L 81 329.091" fill="none" stroke="white" stroke-width="2" stroke-miterlimit="10" stroke-linecap="round"/>
    <animate
      xlink:href="#mountain"
      attributeName="d"
      from="M 290.16 327.971 L 245.1 327.971 C 244.759 327.682 212.247 296.224 211.8 296.224 M 211.8 296.224 C 211.353 296.224 212.141 295.936 211.8 296.224 Z M 211.8 296.224 L 199.255 307.319 M 199.255 307.319 C 198.942 307.59 199.668 307.319 199.255 307.319 Z M 199.255 307.319 C 198.842 307.319 199.568 307.59 199.255 307.319 Z M 199.255 307.319 C 198.822 306.953 178.148 286.163 177.58 286.163 M 177.58 286.163 C 177.012 286.163 178.013 285.796 177.58 286.163 Z M 177.58 286.163 C 177.268 286.435 148.899 312.793 148.485 312.793 M 148.485 312.793 C 148.071 312.793 148.797 313.065 148.485 312.793 Z M 148.485 312.793 C 148.17 312.504 144.003 309.002 143.575 309.002 C 143.147 309.002 125.165 328.802 124.85 329.091 L 81 329.091"
      to="M 290 329.09 L 245 328.999 C 244.659 328.711 214.7 329 214 329 M 214 329 C 213.553 329 214.341 328.711 214 329 Z M 214 329 L 199 329.09 M 199 329.09 C 198.687 329.36 199.413 329.09 199 329.09 Z M 199 329.09 C 198.587 329.09 199.313 329.36 199 329.09 Z M 199 329.09 C 198.567 328.724 174.068 329.09 173.5 329.09 M 173.5 329.09 C 172.932 329.09 173.933 328.724 173.5 329.09 Z M 173.5 329.09 C 173.188 329.362 150.414 329 150 329 M 150 329 C 149.586 329 150.312 329.272 150 329 Z M 150 329 C 149.685 328.711 142.428 329.09 142 329.09 C 141.572 329.09 125.165 328.801 124.85 329.09 L 81 329.09"
      dur="0.8s"
      fill="freeze"
      begin="2.5s"
      repeatCount="1"
    />
  </g>
</svg>
