<svg width="350" height="330" viewBox="0 0 350 330" fill="none" xmlns="http://www.w3.org/2000/svg">
  <g id="additional-award">
    <g id="suitcase-top-from">
      <animate
          attributeName="opacity"
          from="1"
          to="0"
          dur="0.1s"
          fill="freeze"
          begin="1.5s"/>
      <g id="back">
        <path id="Vector" d="M225.88 258.061H82.6799C79.6085 258.074 76.6672 259.303 74.4991 261.478C72.331 263.654 71.1125 266.599 71.1099 269.671V289.421H237.44V269.661C237.437 266.591 236.22 263.647 234.054 261.472C231.888 259.297 228.95 258.067 225.88 258.051" fill="#A67EE5"/>
        <path id="Vector_2" d="M225.88 258.061H82.6799C79.6085 258.074 76.6672 259.302 74.4991 261.478C72.331 263.654 71.1125 266.599 71.1099 269.671V289.421H237.44V269.661C237.435 266.593 236.216 263.651 234.051 261.478C231.885 259.305 228.948 258.076 225.88 258.061Z" stroke="white" stroke-width="2" stroke-miterlimit="10"/>
      </g>
      <g id="front">
        <path id="Vector_3" d="M267.11 258.06H119.23C116.111 258.028 113.107 259.231 110.871 261.406C108.636 263.581 107.352 266.552 107.3 269.67V289.42H279V269.66C278.947 266.542 277.663 263.571 275.428 261.396C273.193 259.221 270.188 258.018 267.07 258.05" fill="#A67EE5"/>
        <path id="Vector_4" d="M267.11 258.06H119.23C116.111 258.028 113.107 259.231 110.871 261.406C108.636 263.581 107.352 266.552 107.3 269.67V289.42H279V269.66C278.945 266.551 277.665 263.588 275.439 261.417C273.213 259.245 270.22 258.039 267.11 258.06V258.06Z" stroke="white" stroke-width="2" stroke-miterlimit="10"/>
      </g>
      <g id=" leg">
        <path id="Vector_5" d="M278.74 279.41C279.797 279.414 280.831 279.105 281.712 278.52C282.593 277.936 283.28 277.103 283.688 276.128C284.095 275.152 284.204 274.078 284 273.041C283.796 272.004 283.289 271.05 282.543 270.302C281.797 269.553 280.846 269.042 279.809 268.835C278.773 268.627 277.698 268.731 276.721 269.135C275.744 269.539 274.909 270.223 274.321 271.102C273.734 271.98 273.42 273.013 273.42 274.07C273.417 274.771 273.553 275.465 273.819 276.112C274.085 276.76 274.477 277.349 274.971 277.845C275.465 278.341 276.053 278.735 276.699 279.004C277.346 279.272 278.04 279.41 278.74 279.41Z" fill="#A67EE5"/>
        <path id="Vector_6" d="M278.74 279.41C281.672 279.41 284.05 277.02 284.05 274.07C284.05 271.121 281.672 268.73 278.74 268.73C275.807 268.73 273.43 271.121 273.43 274.07C273.43 277.02 275.807 279.41 278.74 279.41Z" stroke="white" stroke-width="2" stroke-miterlimit="10"/>
      </g>
      <g id="stripe">
        <path id="Vector_7" d="M277.62 269.661V279.411H266.89C266.139 279.409 265.395 279.26 264.702 278.971C264.008 278.683 263.378 278.26 262.848 277.728C262.318 277.196 261.898 276.565 261.611 275.87C261.325 275.176 261.178 274.432 261.18 273.681V258.061H266.06C269.13 258.074 272.07 259.303 274.237 261.479C276.403 263.655 277.62 266.6 277.62 269.671" fill="#A67EE5"/>
        <path id="Vector_8" d="M277.62 269.661V279.411H266.89C266.139 279.409 265.395 279.26 264.702 278.971C264.008 278.683 263.378 278.26 262.848 277.728C262.318 277.196 261.898 276.565 261.611 275.87C261.325 275.176 261.178 274.432 261.18 273.681V258.061H266.06C269.128 258.074 272.067 259.301 274.233 261.475C276.4 263.649 277.617 266.592 277.62 269.661Z" stroke="white" stroke-width="2" stroke-miterlimit="10"/>
      </g>
    </g>
    <g id="suitcase-top-to" opacity="0">
      <animate
          attributeName="opacity"
          from="0"
          to="1"
          dur="0.1s"
          fill="freeze"
          begin="1.5s"/>
      <g id="Group 11919">
        <path id="Vector" d="M253.93 232.11C255.056 232.11 256.156 231.777 257.091 231.152C258.027 230.526 258.756 229.638 259.187 228.598C259.618 227.558 259.73 226.414 259.511 225.31C259.291 224.207 258.749 223.193 257.954 222.397C257.158 221.601 256.144 221.059 255.04 220.84C253.937 220.62 252.792 220.733 251.753 221.164C250.713 221.594 249.824 222.324 249.199 223.259C248.574 224.195 248.24 225.295 248.24 226.42C248.24 227.93 248.84 229.377 249.907 230.444C250.974 231.511 252.421 232.11 253.93 232.11" fill="#A67EE5"/>
        <path id="Vector_2" d="M253.93 232.11C257.073 232.11 259.62 229.563 259.62 226.42C259.62 223.278 257.073 220.73 253.93 220.73C250.788 220.73 248.24 223.278 248.24 226.42C248.24 229.563 250.788 232.11 253.93 232.11Z" stroke="white" stroke-width="2" stroke-miterlimit="10"/>
      </g>
      <g id="Group 11920">
        <path id="Vector_3" d="M240.3 210.48H67.1904C64.0251 210.48 60.9879 211.731 58.7403 213.96C56.4927 216.189 55.2168 219.215 55.1904 222.38V276C55.1904 279.448 56.5601 282.755 58.998 285.193C61.436 287.631 64.7426 289 68.1904 289H252.19V222.38C252.164 219.226 250.897 216.208 248.662 213.981C246.427 211.754 243.405 210.496 240.25 210.48" fill="#A67EE5"/>
        <path id="Vector_4" d="M240.3 210.48H67.1904C64.0251 210.48 60.9879 211.731 58.7403 213.96C56.4927 216.189 55.2168 219.215 55.1904 222.38V276C55.1904 279.448 56.5601 282.755 58.998 285.193C61.436 287.631 64.7426 289 68.1904 289H252.19V222.38C252.164 219.234 250.904 216.224 248.68 213.998C246.456 211.772 243.447 210.509 240.3 210.48V210.48Z" stroke="white" stroke-width="2" stroke-miterlimit="10"/>
      </g>
      <path id="Vector_5" d="M70.2402 289V225.49C70.2402 221.512 71.8206 217.697 74.6336 214.884C77.4467 212.071 81.262 210.49 85.2402 210.49H85.7402" stroke="white" stroke-width="2"/>
    </g>
    <g id=" balloon" opacity="0">
      <animate
          attributeName="opacity"
          from="0"
          to="1"
          dur="0.1s"
          fill="freeze"
          begin="1.5s"/>
      <g transform="translate(108 290)">
        <animateTransform
              attributeName="transform"
              type="rotate"
              values="1;-3;2;-2;-2;2;-1;0"
              dur="1.3s"
              begin="1.5s"
              calcMode="spline"
              keySplines="0.33 0 0.67 1;
                0.33 0 0.67 1;
                0.33 0 0.67 1;
                0.33 0 0.67 1;
                0.33 0 0.67 1;
                0.33 0 0.67 1;
                0.33 0 0.67 1"
              additive="sum"/>
        <g>
          <animateTransform
            attributeName="transform"
            type="scale"
            values="1 0; 1 1; 1 0.95; 1 1.05; 1 1; 1 1.05; 1 1.05; 1 1"
            dur="1.3s"
            begin="1.5s"
            calcMode="spline"
            keySplines="0.33 0 0.67 1;
                        0.33 0 0.67 1;
                        0.33 0 0.67 1;
                        0.33 0 0.67 1;
                        0.33 0 0.67 1;
                        0.33 0 0.67 1;
                        0.33 0 0.67 1"
            additive="replace"/>
          <g transform="translate(-108 -290)">
            <path id="rope" d="M108 163V288" stroke="white" stroke-width="2" stroke-miterlimit="10" stroke-linecap="round"/>
          </g>
        </g>
      </g>
      <g id="ball" transform="translate(108 163)">
        <animateTransform
            attributeName="transform"
            type="translate"
            values="108 324;108 163;113 188;100 157;104 175;111 162;108 167; 108 163"
            dur="1.3s"
            begin="1.5s"
            calcMode="spline"
            keySplines="0.33 0 0.67 1;
              0.33 0 0.67 1;
              0.33 0 0.67 1;
              0.33 0 0.67 1;
              0.33 0 0.67 1;
              0.33 0 0.67 1;
              0.33 0 0.67 1"
            fill="freeze"
            additive="replace"/>
        <g>
          <animateTransform
            attributeName="transform"
            type="rotate"
            values="45;-12;6;-5;4;0"
            dur="1.3s"
            begin="1.5s"
            calcMode="spline"
            keySplines="0.33 0 0.67 1;
              0.33 0 0.67 1;
              0.33 0 0.67 1;
              0.33 0 0.67 1;
              0.33 0 0.67 1"
            additive="sum"/>
          <g transform="translate(-108 -163)">
            <path id="Vector_6" d="M106.581 161.87L104.391 165.66C104.275 165.864 104.215 166.095 104.217 166.33C104.219 166.564 104.282 166.794 104.4 166.997C104.519 167.199 104.688 167.367 104.892 167.483C105.095 167.6 105.326 167.661 105.561 167.66H109.931C110.164 167.659 110.394 167.597 110.596 167.48C110.798 167.363 110.966 167.195 111.084 166.992C111.201 166.79 111.263 166.561 111.264 166.327C111.266 166.093 111.206 165.863 111.091 165.66L108.911 161.87C108.792 161.667 108.621 161.498 108.417 161.381C108.213 161.264 107.981 161.202 107.746 161.202C107.51 161.202 107.279 161.264 107.074 161.381C106.87 161.498 106.7 161.667 106.581 161.87Z" fill="white"/>
            <path id="Vector_7" d="M107.74 79.4196C116.463 79.4222 124.829 82.8879 130.998 89.0552C137.167 95.2224 140.635 103.586 140.64 112.31C140.64 130.48 125.55 161.2 107.39 161.2C89.2302 161.2 74.8402 130.47 74.8402 112.31C74.8455 103.586 78.3138 95.2224 84.4829 89.0552C90.652 82.8879 99.0172 79.4222 107.74 79.4196V79.4196ZM107.74 77.8096C98.5935 77.8202 89.8245 81.4584 83.3567 87.9261C76.889 94.3938 73.2508 103.163 73.2402 112.31C73.2402 121.82 77.0402 134.41 82.9202 144.38C89.9202 156.26 98.6002 162.8 107.38 162.8C116.16 162.8 124.98 156.26 132.19 144.4C138.29 134.4 142.24 121.76 142.24 112.31C142.23 103.163 138.591 94.3938 132.124 87.9261C125.656 81.4584 116.887 77.8202 107.74 77.8096" fill="white"/>
            <path id="Vector_8" d="M96.0598 112.39C96.0598 94.23 101.29 79.5 107.74 79.5C99.0168 79.5026 90.6516 82.9684 84.4825 89.1356C78.3134 95.3028 74.8451 103.667 74.8398 112.39C74.8398 130.56 89.2198 161.28 107.39 161.28H107.56C101.13 161.09 96.0598 130.51 96.0598 112.39Z" fill="#76ABFF"/>
            <path id="Vector_9" d="M140.64 112.39C140.635 103.667 137.167 95.3028 130.998 89.1356C124.829 82.9684 116.463 79.5026 107.74 79.5C114.19 79.5 119.42 94.23 119.42 112.39C119.42 130.55 114.13 160.87 107.74 161.26C125.74 160.87 140.64 130.44 140.64 112.39" fill="#1553B7"/>
            <path id="Vector_10" d="M119.421 112.39C119.421 94.23 114.191 79.5 107.741 79.5C101.291 79.5 96.0605 94.23 96.0605 112.39C96.0605 130.55 101.131 161.08 107.561 161.28H107.741C114.131 160.88 119.421 130.45 119.421 112.4" fill="#3B7BF2"/>
            <g id="Group 11918">
              <path id="Vector_11" d="M100.54 105.359C99.4125 105.359 98.3105 105.693 97.3731 106.32C96.4357 106.946 95.7052 107.836 95.2737 108.878C94.8423 109.919 94.7294 111.065 94.9494 112.171C95.1693 113.277 95.7122 114.292 96.5093 115.09C97.3065 115.887 98.3221 116.43 99.4278 116.65C100.534 116.869 101.68 116.757 102.721 116.325C103.763 115.894 104.653 115.163 105.279 114.226C105.906 113.288 106.24 112.186 106.24 111.059C106.285 110.299 106.168 109.538 105.898 108.825C105.628 108.113 105.209 107.467 104.671 106.928C104.132 106.39 103.485 105.971 102.773 105.701C102.061 105.43 101.3 105.314 100.54 105.359V105.359ZM100.54 113.359C98.6798 113.359 97.4798 112.429 97.4798 111.069C97.4798 109.709 98.6898 108.779 100.54 108.779C102.39 108.779 103.61 109.709 103.61 111.069C103.61 112.429 102.36 113.359 100.54 113.359Z" fill="white"/>
              <path id="Vector_12" d="M114.741 105.359C115.066 105.359 115.386 105.448 115.664 105.617C115.943 105.786 116.17 106.028 116.32 106.316C116.471 106.605 116.539 106.93 116.518 107.255C116.497 107.58 116.387 107.893 116.201 108.159L102.871 127.499C102.583 127.831 102.184 128.046 101.749 128.102C101.314 128.159 100.873 128.054 100.511 127.808C100.148 127.561 99.8885 127.189 99.7815 126.764C99.6746 126.338 99.7277 125.888 99.9306 125.499L113.271 106.159C113.434 105.921 113.654 105.726 113.91 105.591C114.166 105.457 114.451 105.388 114.741 105.389" fill="white"/>
              <path id="Vector_13" d="M116.21 116.88C115.082 116.88 113.98 117.214 113.043 117.841C112.106 118.467 111.375 119.357 110.944 120.399C110.512 121.44 110.399 122.586 110.619 123.692C110.839 124.798 111.382 125.813 112.179 126.61C112.976 127.408 113.992 127.95 115.098 128.17C116.203 128.39 117.35 128.277 118.391 127.846C119.433 127.415 120.323 126.684 120.949 125.747C121.575 124.809 121.91 123.707 121.91 122.58C121.953 121.82 121.836 121.059 121.565 120.348C121.294 119.637 120.875 118.991 120.337 118.453C119.799 117.914 119.153 117.496 118.442 117.225C117.73 116.954 116.97 116.836 116.21 116.88ZM116.21 124.88C114.35 124.88 113.15 123.95 113.15 122.59C113.15 121.23 114.36 120.3 116.21 120.3C118.06 120.3 119.28 121.2 119.28 122.59C119.28 123.98 118.07 124.88 116.21 124.88Z" fill="white"/>
            </g>
          </g>
        </g>
      </g>
     </g>
    <g id="bird" opacity="0" transform="translate(281 184)">
      <animate
          attributeName="opacity"
          from="0"
          to="1"
          dur="0.1s"
          fill="freeze"
          begin="1.5s"/>
      <animateTransform
            attributeName="transform"
            type="translate"
            values="239 255;303 180;289 189;303 180"
            dur="2.7s"
            begin="1.5s"
            fill="freeze"
            calcMode="spline"
            keySplines="0.33 0 0.67 1;
              0.33 0 0.67 1;
              0.33 0 0.67 1"
            additive="replace"/>
      <animateTransform
            attributeName="transform"
            type="translate"
            values="303 180;289 189;303 180"
            dur="2.7s"
            begin="4.2s"
            repeatCount="indefinite"
            calcMode="spline"
            keySplines="0.33 0 0.67 1;
              0.33 0 0.67 1"
            additive="replace"/>
      <g>
        <animateTransform
            attributeName="transform"
            type="rotate"
            values="-37;3;-17;-22;2;2;-17;-37"
            dur="2.7s"
            begin="1.5s"
            repeatCount="indefinite"
            calcMode="spline"
            keySplines="0.33 0 0.67 1;
              0.33 0 0.67 1;
              0.33 0 0.67 1;
              0.33 0 0.67 1;
              0.33 0 0.67 1;
              0.33 0 0.67 1;
              0.33 0 0.67 1"
            additive="sum"/>
        <g transform="translate(-281 -184)">
          <g transform="translate(283 184)">
            <g>
              <animateTransform
                attributeName="transform"
                type="scale"
                values="1;0.5;-0.6 0.6;1"
                dur="0.2s"
                begin="1.5s"
                repeatCount="indefinite"
                calcMode="spline"
                keySplines="0.33 0 0.67 1;
                  0.33 0 0.67 1;
                  0.33 0 0.67 1"
                additive="sum"/>
              <g transform="translate(-283 -184)">
                <path id="wing" d="M279.2 183.8C279.193 182.686 279.565 181.604 280.256 180.731C280.947 179.859 281.915 179.248 283 179V179L304.07 173.6C296.29 188.44 284.89 188.67 284.07 188.67C282.779 188.656 281.546 188.134 280.638 187.217C279.73 186.299 279.22 185.061 279.22 183.77" fill="white"/>
              </g>
            </g>
          </g>
          <path id="body" d="M262.24 169.86H273C273.355 168.986 273.966 168.241 274.754 167.723C275.541 167.206 276.468 166.939 277.41 166.96C278.094 166.923 278.775 167.066 279.385 167.375C279.996 167.684 280.515 168.148 280.89 168.72C281.44 169.53 281.9 170.399 282.26 171.31C282.89 172.88 286.26 187.11 288.15 190.47C289.25 192.47 292.54 197.63 292.54 197.63C292.743 197.979 292.85 198.376 292.85 198.78V208C292.85 208 289.74 206.92 289.74 204.09V197.56C287.83 197.83 283.74 195.91 281.41 194.68C278.52 193.3 276.251 190.888 275.05 187.92C273.839 184.994 273.799 181.714 274.94 178.76C275.408 177.857 275.677 176.865 275.73 175.85C275.67 174.71 274.34 173.13 273.55 171.8L262.24 169.86Z" fill="white"/>
        </g>
      </g>
    </g>
    <g id="flowers" opacity="0">
      <animate
          attributeName="opacity"
          from="0"
          to="1"
          dur="0.1s"
          fill="freeze"
          begin="1.5s"/>
      <g id="right-flower" transform="translate(178 288)">
        <g>
          <animateTransform
            attributeName="transform"
            type="rotate"
            values="52;-10;4;-2;0"
            dur="2.5s"
            begin="1.5s"
            calcMode="spline"
            keySplines="0.45 0 0.85 1;
              0.33 0 0.67 1;
              0.33 0 0.67 1;
              0.33 0 0.67 1"
            additive="replace"/>
          <g transform="translate(-178 -288)">
            <path id="Vector_30" d="M180.73 277.8C180.73 277.8 189.03 203.21 220.44 187.8" stroke="white" stroke-width="2" stroke-linecap="round" stroke-linejoin="round"/>
            <path id="Vector_31" d="M217.95 187.12L227.22 162.63C230.306 163.003 233.278 164.025 235.94 165.63C237.587 164.511 239.597 164.058 241.564 164.362C243.532 164.666 245.311 165.704 246.543 167.267C247.776 168.831 248.37 170.803 248.206 172.787C248.042 174.772 247.133 176.62 245.66 177.96C246.588 180.926 246.881 184.053 246.52 187.14L220.52 190.44C220.102 190.492 219.677 190.436 219.287 190.276C218.896 190.117 218.554 189.859 218.292 189.528C218.031 189.197 217.859 188.804 217.794 188.388C217.729 187.971 217.772 187.545 217.92 187.15" fill="#3B7BF2"/>
            <path id="Vector_32" d="M178.24 287.63C178.24 287.63 185.13 242.95 216.19 231.1" stroke="white" stroke-width="2" stroke-linecap="round" stroke-linejoin="round"/>
            <path id="Vector_33" d="M210.851 232L219.851 215.53C222.074 216.075 224.16 217.073 225.981 218.46C227.224 217.859 228.639 217.71 229.981 218.04C230.712 218.206 231.404 218.516 232.015 218.951C232.626 219.386 233.145 219.938 233.541 220.576C233.938 221.213 234.203 221.922 234.323 222.663C234.444 223.403 234.415 224.161 234.241 224.89C233.901 226.212 233.086 227.362 231.951 228.12C232.365 230.302 232.294 232.549 231.741 234.7L212.401 234.59C212.094 234.598 211.791 234.525 211.521 234.379C211.251 234.233 211.024 234.019 210.862 233.758C210.7 233.498 210.609 233.199 210.599 232.892C210.588 232.586 210.658 232.282 210.801 232.01" fill="#3B7BF2"/>
          </g>
        </g>
      </g>
      <g id="left-flower" transform="translate(178 288)">
        <g>
          <animateTransform
            attributeName="transform"
            type="rotate"
            values="60;-6;3;0;3;0;"
            dur="2.8s"
            begin="1.5s"
            calcMode="spline"
            keySplines="0.33 0 0.67 1;
              0.33 0 0.67 1;
              0.33 0 0.67 1;
              0.33 0 0.67 1;
              0.33 0 0.67 1;"
            additive="replace"/>
          <g transform="translate(-178 -288)">
            <path id="Vector_34" d="M141.771 204.16C165.871 236.61 177.581 288.16 177.581 288.16" stroke="#3B7BF2" stroke-width="2" stroke-linecap="round" stroke-linejoin="round"/>
            <path id="Vector_35" d="M125.73 196.22C132.27 203.73 142.89 205.22 142.89 205.22C142.89 205.22 142.89 194.5 136.36 187C129.83 179.5 119.19 178 119.19 178C119.19 178 119.19 188.72 125.73 196.22" fill="#76ABFF"/>
            <path id="Vector_36" d="M153.17 206.54C150.48 216.12 155.08 225.81 155.08 225.81C155.08 225.81 164.08 219.95 166.75 210.36C169.42 200.77 164.84 191.09 164.84 191.09C164.84 191.09 155.84 196.95 153.17 206.54Z" fill="#3B7BF2"/>
            <path id="Vector_37" d="M135.82 227.71C145.41 230.41 155.08 225.8 155.08 225.8C155.08 225.8 149.22 216.8 139.63 214.13C130.04 211.46 120.37 216 120.37 216C120.37 216 126.24 225 135.82 227.67" fill="#3B7BF2"/>
            <path id="Vector_38" d="M166.101 232.52C162.691 241.88 166.571 251.87 166.571 251.87C166.571 251.87 175.961 246.69 179.361 237.34C182.761 227.99 178.891 218 178.891 218C178.891 218 169.501 223.18 166.101 232.53" fill="#1553B7"/>
            <path id="Vector_39" d="M147.221 252.35C156.581 255.75 166.571 251.88 166.571 251.88C166.571 251.88 161.391 242.49 152.031 239.09C142.671 235.69 132.681 239.56 132.681 239.56C132.681 239.56 137.861 248.95 147.221 252.35Z" fill="#1553B7"/>
          </g>
        </g>
      </g>
      <g id="small-flower" transform="translate(178 288)">
        <g>
          <animateTransform
            attributeName="transform"
            type="rotate"
            values="39;-10;4;0;4;0"
            dur="2.5s"
            begin="1.5s"
            calcMode="spline"
            keySplines="0.33 0 0.67 1;
              0.33 0 0.67 1;
              0.33 0 0.67 1;
              0.33 0 0.67 1;
              0.33 0 0.67 1"
            additive="replace"/>
          <g transform='translate(-178 -288)'>
            <path id="Vector_40" d="M183.79 264.77C186.09 273.87 181.52 282.89 181.52 282.89C181.52 282.89 173.2 277.15 170.89 268.04C168.58 258.93 173.16 249.92 173.16 249.92C173.16 249.92 181.48 255.67 183.79 264.77Z" fill="#3B7BF2"/>
            <path id="Vector_41" d="M199.63 285.16C190.52 287.47 181.51 282.89 181.51 282.89C181.51 282.89 187.25 274.57 196.36 272.26C205.47 269.95 214.48 274.53 214.48 274.53C214.48 274.53 208.73 282.85 199.63 285.16Z" fill="#3B7BF2"/>
            <path id="Vector_42" d="M188.56 271.67C184.751 276.967 181.307 282.516 178.25 288.28" stroke="#3B7BF2" stroke-width="2" stroke-linecap="round" stroke-linejoin="round"/>
            <path id="Vector_43" d="M203.69 264.19C197.52 271.27 187.5 272.63 187.5 272.63C187.5 272.63 187.5 262.52 193.66 255.45C199.82 248.38 209.85 247 209.85 247C209.85 247 209.85 257.11 203.69 264.19Z" fill="#76ABFF"/>
          </g>
        </g>
      </g>
    </g>
    <g id="suitcase-bottom">
      <g id="Group 11917">
        <path id="Vector_14" d="M280.29 318.62C281.44 318.742 282.6 318.511 283.617 317.96C284.634 317.408 285.46 316.561 285.985 315.53C286.511 314.5 286.712 313.334 286.561 312.187C286.41 311.04 285.916 309.966 285.142 309.106C284.368 308.246 283.352 307.641 282.227 307.37C281.102 307.1 279.922 307.177 278.841 307.591C277.761 308.005 276.832 308.738 276.177 309.691C275.521 310.644 275.17 311.773 275.17 312.93C275.099 314.363 275.597 315.765 276.557 316.831C277.516 317.897 278.858 318.54 280.29 318.62Z" fill="#A67EE5"/>
        <path id="Vector_15" d="M280.29 318.62C283.118 318.62 285.41 316.073 285.41 312.93C285.41 309.788 283.118 307.24 280.29 307.24C277.462 307.24 275.17 309.788 275.17 312.93C275.17 316.073 277.462 318.62 280.29 318.62Z" stroke="white" stroke-width="2" stroke-miterlimit="10"/>
      </g>
      <g id="Group 11916">
        <path id="Vector_16" d="M230.22 328.86H82.2195C79.0904 328.887 76.0777 327.675 73.8389 325.488C71.6001 323.302 70.3169 320.319 70.2695 317.19V289H242.16V317.17C242.115 320.298 240.834 323.281 238.597 325.468C236.359 327.654 233.348 328.867 230.22 328.84" fill="#A67EE5"/>
        <path id="Vector_17" d="M230.22 328.86H82.2195C79.0904 328.887 76.0777 327.675 73.8389 325.488C71.6001 323.302 70.3169 320.319 70.2695 317.19V289H242.16V317.17C242.12 320.302 240.841 323.29 238.604 325.481C236.366 327.672 233.351 328.887 230.22 328.86V328.86Z" stroke="white" stroke-width="2" stroke-miterlimit="10"/>
      </g>
      <g id="Group 11915">
        <path id="Vector_18" d="M266.72 328.86H119.72C116.601 328.876 113.603 327.658 111.379 325.472C109.155 323.285 107.887 320.308 107.85 317.19V289H278.58V317.17C278.548 320.288 277.282 323.267 275.059 325.454C272.837 327.641 269.838 328.859 266.72 328.84" fill="#A67EE5"/>
        <path id="Vector_19" d="M266.72 328.86H119.72C116.601 328.876 113.603 327.658 111.379 325.472C109.155 323.285 107.887 320.308 107.85 317.19V289H278.58V317.17C278.553 320.292 277.29 323.275 275.066 325.467C272.843 327.658 269.841 328.879 266.72 328.86Z" stroke="white" stroke-width="2" stroke-miterlimit="10"/>
      </g>
      <g id="Group 11914">
        <path id="Vector_20" d="M215 314.071H180.49C179.362 314.092 178.272 313.667 177.457 312.887C176.642 312.108 176.168 311.038 176.14 309.911V298.211C176.142 298.047 176.177 297.885 176.243 297.735C176.308 297.585 176.402 297.449 176.52 297.336C176.639 297.223 176.778 297.134 176.931 297.074C177.083 297.015 177.246 296.987 177.41 296.991H180.29C180.619 296.985 180.938 297.11 181.176 297.339C181.414 297.568 181.552 297.881 181.56 298.211V308.211C181.57 308.56 181.718 308.891 181.97 309.132C182.223 309.374 182.56 309.506 182.91 309.501H212.62C212.969 309.506 213.306 309.374 213.559 309.132C213.812 308.891 213.959 308.56 213.97 308.211V298.211C213.972 298.047 214.007 297.885 214.073 297.735C214.138 297.585 214.232 297.449 214.35 297.336C214.469 297.223 214.608 297.134 214.761 297.074C214.913 297.015 215.076 296.987 215.24 296.991H218.12C218.449 296.985 218.768 297.11 219.006 297.339C219.244 297.568 219.382 297.881 219.39 298.211V309.901C219.361 311.028 218.887 312.098 218.072 312.877C217.257 313.657 216.167 314.082 215.04 314.061" fill="#A67EE5"/>
        <path id="Vector_21" d="M215 314.071H180.49C179.362 314.092 178.272 313.667 177.457 312.887C176.642 312.108 176.168 311.038 176.14 309.911V298.211C176.142 298.047 176.177 297.885 176.243 297.735C176.308 297.585 176.402 297.449 176.52 297.336C176.639 297.223 176.778 297.134 176.931 297.074C177.083 297.015 177.246 296.987 177.41 296.991H180.29C180.619 296.985 180.938 297.11 181.176 297.339C181.414 297.568 181.552 297.881 181.56 298.211V308.211C181.57 308.56 181.718 308.891 181.97 309.132C182.223 309.374 182.56 309.506 182.91 309.501H212.62C212.969 309.506 213.306 309.374 213.559 309.132C213.812 308.891 213.959 308.56 213.97 308.211V298.211C213.972 298.047 214.007 297.885 214.073 297.735C214.138 297.585 214.232 297.449 214.35 297.336C214.469 297.223 214.608 297.134 214.761 297.074C214.913 297.015 215.076 296.987 215.24 296.991H218.12C218.449 296.985 218.768 297.11 219.006 297.339C219.244 297.568 219.382 297.881 219.39 298.211V309.901C219.377 310.463 219.253 311.018 219.025 311.532C218.797 312.046 218.47 312.511 218.062 312.898C217.654 313.286 217.173 313.589 216.648 313.79C216.122 313.991 215.562 314.087 215 314.071V314.071Z" stroke="white" stroke-width="2" stroke-miterlimit="10"/>
      </g>
      <g id="Group 11913">
        <path id="Vector_22" d="M147.679 282.19H138.579V294.71H147.679V282.19Z" fill="#A67EE5"/>
        <path id="Vector_23" d="M147.679 282.19H138.579V294.71H147.679V282.19Z" stroke="white" stroke-width="2" stroke-miterlimit="10"/>
      </g>
      <g id="Group 11912">
        <path id="Vector_24" d="M256.95 282.19H247.85V294.71H256.95V282.19Z" fill="#A67EE5"/>
        <path id="Vector_25" d="M256.95 282.19H247.85V294.71H256.95V282.19Z" stroke="white" stroke-width="2" stroke-miterlimit="10"/>
      </g>
      <g id="Group 11911">
        <path id="Vector_26" d="M278.58 317.11V307.24H268.18C266.678 307.277 265.252 307.908 264.215 308.996C263.178 310.083 262.615 311.538 262.65 313.04V328.86H267.38C273.54 328.86 278.58 323.57 278.58 317.11" fill="#A67EE5"/>
        <path id="Vector_27" d="M278.58 317.11V307.24H268.18C266.678 307.277 265.252 307.908 264.215 308.996C263.178 310.083 262.615 311.538 262.65 313.04V328.86H267.38C273.54 328.86 278.58 323.58 278.58 317.11Z" stroke="white" stroke-width="2" stroke-miterlimit="10"/>
      </g>
      <g id="Group 11910">
        <path id="Vector_28" d="M99.9997 301.54H79.2197C78.9545 301.54 78.7002 301.435 78.5126 301.247C78.3251 301.06 78.2197 300.805 78.2197 300.54V298C78.2197 297.735 78.3251 297.48 78.5126 297.293C78.7002 297.105 78.9545 297 79.2197 297H99.9997C100.265 297 100.519 297.105 100.707 297.293C100.894 297.48 101 297.735 101 298V300.58C101 300.845 100.894 301.1 100.707 301.287C100.519 301.475 100.265 301.58 99.9997 301.58" fill="#A67EE5"/>
        <path id="Vector_29" d="M99.9997 301.54H79.2197C78.9545 301.54 78.7002 301.435 78.5126 301.247C78.3251 301.06 78.2197 300.805 78.2197 300.54V298C78.2197 297.735 78.3251 297.48 78.5126 297.293C78.7002 297.105 78.9545 297 79.2197 297H99.9997C100.265 297 100.519 297.105 100.707 297.293C100.894 297.48 101 297.735 101 298V300.58C100.989 300.838 100.879 301.082 100.693 301.261C100.507 301.44 100.258 301.54 99.9997 301.54Z" stroke="white" stroke-width="2" stroke-miterlimit="10"/>
      </g>
    </g>
    <g id="line">
      <path id="Vector_44" d="M46.2402 329H303.76" stroke="white" stroke-width="2" stroke-linecap="round" stroke-linejoin="round"/>
    </g>
  </g>
</svg>
