<svg xmlns="http://www.w3.org/2000/svg" xmlns:xlink="http://www.w3.org/1999/xlink" viewBox="0 0 350 330">
  <g id="secondary-award-from">
    <g id="flower1">
      <g id="leaf1" transform='translate(268 248)'>
        <g>
          <animateTransform
                attributeName="transform"
                type="rotate"
                values='0;5;0'
                keySplines="0.33 0.46 0.51 1;
                  0.33 0.46 0.51 1"
                calcMode="spline"
                dur="1.5s"
                repeatCount="indefinite"
                additive="sum"/>
          <g transform='translate(-268 -248)'>
            <path d="M263.47 206.82C263.795 206.58 264.184 206.444 264.588 206.43C264.992 206.416 265.39 206.524 265.731 206.74C266.072 206.957 266.339 207.271 266.498 207.642C266.656 208.014 266.699 208.424 266.62 208.82C265.62 215.82 264.55 229.15 271.47 228.22C276.41 227.56 254.82 196.69 290.79 190.06C291.162 189.982 291.548 190.012 291.903 190.145C292.259 190.278 292.569 190.51 292.798 190.813C293.026 191.116 293.164 191.478 293.194 191.857C293.225 192.235 293.147 192.614 292.97 192.95C291.65 195.69 290.14 199.56 290.24 202.85C290.248 203.284 290.397 203.703 290.663 204.044C290.93 204.386 291.301 204.632 291.719 204.745C292.138 204.857 292.582 204.831 292.984 204.67C293.386 204.509 293.725 204.221 293.95 203.85C298.05 197.7 309.05 185.99 330.54 193.15C330.883 193.261 331.189 193.463 331.427 193.734C331.665 194.005 331.825 194.336 331.89 194.69C332.82 199.49 336.02 217.93 331.6 223.41C326.51 229.72 316.6 227.55 315.42 233.66C314.12 240.57 322.93 238.48 328.84 233.44C329.138 233.177 329.507 233.008 329.901 232.956C330.294 232.903 330.695 232.969 331.051 233.145C331.407 233.321 331.703 233.599 331.9 233.944C332.098 234.288 332.188 234.684 332.16 235.08C331.91 240.53 329.98 249.08 321.04 253.77C307.26 260.98 297.56 246.77 295.85 249.89C293.26 254.55 303.79 258.36 309.63 260.07C310.001 260.168 310.337 260.371 310.596 260.655C310.855 260.938 311.027 261.29 311.091 261.669C311.155 262.047 311.109 262.437 310.958 262.79C310.807 263.143 310.558 263.445 310.24 263.66C299.72 271.4 281.11 273.94 273.24 258.25C264.94 241.66 260.31 245.76 255.05 237.87C249.34 229.3 250.72 215.33 263.43 206.82H263.47ZM292.83 239.29C293.33 242.02 298.03 242.8 301.18 242.23C304.33 241.66 309.65 238.4 309.18 235.67C308.71 232.94 302.56 231.77 299.4 232.34C296.24 232.91 292.35 236.56 292.85 239.29" fill="#E81A5A"/>
          </g>
        </g>
      </g>
      <path id="Vector_2" d="M263 327.88C263 327.88 258.09 257.61 268.54 247.16" stroke="#E81A5A" stroke-width="2" stroke-miterlimit="10" fill-opacity="0"/>
    </g>
    <g id="cloud1" transform="translate(30, 0)" opacity="0">
      <path id="Vector_3" d="M65.4302 77.7197H105.21" stroke="white" stroke-width="2" stroke-miterlimit="10" stroke-linecap="round"/>
      <g id="Group">
        <path id="Vector_4" d="M85.2199 67.4498H57.8599C57.8599 64.1611 56.5535 61.0071 54.228 58.6817C51.9026 56.3562 48.7486 55.0498 45.4599 55.0498C42.1712 55.0498 39.0172 56.3562 36.6918 58.6817C34.3663 61.0071 33.0599 64.1611 33.0599 67.4498H15.1299" stroke="white" stroke-width="2" stroke-miterlimit="10" stroke-linecap="round" fill-opacity="0"/>
        <path id="Vector_5" d="M93.48 67.4502H115.68" stroke="white" stroke-width="2" stroke-miterlimit="10" stroke-linecap="round"/>
      </g>
    </g>
      <animateTransform xlink:href="#cloud1"
                  attributeName="transform"
                  type="translate"
                  from="30,0"
                  to="0,0"
                  dur="0.5s"
                  repeatCount="1"
                  additive="replace"
                  fill="freeze"/>
      <animateTransform xlink:href="#cloud1"
                  attributeName="transform"
                  type="translate"
                  from="0,0"
                  to="0,-30"
                  dur="0.4s"
                  begin="0.8s"
                  repeatCount="1"
                  additive="replace"
                  fill="freeze"/>
      <animate xlink:href="#cloud1"
              attributeName="opacity"
              from="0"
              to="1"
              dur="0.3s"
              fill="freeze"/>
      <animate xlink:href="#cloud1"
              attributeName="opacity"
              from="1"
              to="0"
              dur="0.3s"
              begin="0.8s"
              fill="freeze"/>
    <g id="cloud3" transform="translate(30, 0)" opacity="0">
      <path id="Vector_6" d="M272.13 145.27H311.9" stroke="white" stroke-width="2" stroke-miterlimit="10" stroke-linecap="round"/>
      <path id="Vector_7" d="M300.17 135H322.37" stroke="white" stroke-width="2" stroke-miterlimit="10" stroke-linecap="round"/>
    </g>
      <animateTransform xlink:href="#cloud3"
                  attributeName="transform"
                  type="translate"
                  from="30,0"
                  to="0,0"
                  dur="0.5s"
                  repeatCount="1"
                  additive="replace"
                  fill="freeze"/>
      <animateTransform xlink:href="#cloud3"
                  attributeName="transform"
                  type="translate"
                  from="0,0"
                  to="0,-30"
                  dur="0.4s"
                  begin="0.8s"
                  repeatCount="1"
                  additive="replace"
                  fill="freeze"/>
      <animate xlink:href="#cloud3"
              attributeName="opacity"
              from="0"
              to="1"
              dur="0.3s"
              fill="freeze"/>
      <animate xlink:href="#cloud3"
              attributeName="opacity"
              from="1"
              to="0"
              dur="0.3s"
              begin="0.8s"
              fill="freeze"/>
    <g id="cloud2" transform="translate(45, 0)" opacity="0">
      <path id="Vector_8" d="M235.77 119H216.32C216.198 110.896 213.305 103.078 208.124 96.8464C202.942 90.6144 195.784 86.3436 187.838 84.744C179.893 83.1445 171.64 84.3125 164.45 88.054C157.261 91.7954 151.569 97.8849 148.32 105.31C144.377 103.122 139.939 101.982 135.43 102C130.068 102.018 124.835 103.649 120.412 106.681C115.989 109.713 112.581 114.005 110.63 119H95.48C92.6952 119 90.0245 120.106 88.0554 122.075C86.0862 124.045 84.98 126.715 84.98 129.5C84.98 132.285 86.0862 134.956 88.0554 136.925C90.0245 138.894 92.6952 140 95.48 140H235.78C238.565 140 241.235 138.894 243.205 136.925C245.174 134.956 246.28 132.285 246.28 129.5C246.28 126.715 245.174 124.045 243.205 122.075C241.235 120.106 238.565 119 235.78 119" fill="white"/>
    </g>
      <animateTransform xlink:href="#cloud2"
                  attributeName="transform"
                  type="translate"
                  from="30,0"
                  to="0,0"
                  dur="0.5s"
                  repeatCount="1"
                  additive="replace"
                  fill="freeze"/>
      <animateTransform xlink:href="#cloud2"
                  attributeName="transform"
                  type="translate"
                  from="0,0"
                  to="0,-30"
                  dur="0.4s"
                  begin="0.8s"
                  repeatCount="1"
                  additive="replace"
                  fill="freeze"/>
      <animate xlink:href="#cloud2"
              attributeName="opacity"
              from="0"
              to="1"
              dur="0.3s"
              fill="freeze"/>
      <animate xlink:href="#cloud2"
              attributeName="opacity"
              from="1"
              to="0"
              begin="0.8s"
              dur="0.3s"
              fill="freeze"/>
    <path d="M41.1299 329H141.13" stroke="white" stroke-width="2" id="line"/>
    <animate
      xlink:href="#line"
      attributeName="d"
      values="M 41.13 329 L 141.13 329; M 78 330 L 283.79 328.88; M 147.13 328.88 L 283.79 328.88"
      dur="0.3s"
      fill="freeze"
      repeatCount="1"/>
    </g>
    <g id="suitcase" transform="translate(185 195) translate(-185 -195)" opacity="0">
      <animate
        attributeName="opacity"
        from="0"
        to="1"
        dur="0.2s"
        fill="freeze"
        begin="0.4s"/>
      <animateMotion
          path="M185.174 112.082C209.364 102.842 214.974 96.2422 214.594 91.6422C213.354 76.5122 144.904 52.8622 102.174 85.0822C99.2437 87.2922 70.5137 109.602 73.1737 139.082C76.7137 178.262 133.004 200.232 148.874 206.432C202.524 227.372 243.304 215.222 250.654 233.612C253.544 240.862 251.434 253.302 229.174 276.082"
          dur="1.8s"
          calcMode="linear"
          begin="0.4s"
          fill="freeze"
          repeatCount="1"/>
      <g>
        <animateTransform
            attributeName="transform"
            type="scale"
            values="0;1"
            dur="1.3s"
            fill="freeze"
            begin="0.4s"
            additive="replace"/>
          <animateTransform
              attributeName="transform"
              type="rotate"
              values="30;-30;20;18;-6;0"
              dur="1.5s"
              begin="0.4s"
              keySplines="0.33 0 0.67 1;
                  0.33 0 0.67 1;
                  0.33 0 0.67 1;
                  0.33 0 0.67 1;
                  0.17 0 0.83 1"
              calcMode="spline"
              fill="freeze"
              additive="sum"/>
        <g transform="translate(-185 -195)">
          <g id="Group_2">
            <g>
              <path id="Vector_13" d="M215.67 247.14C216.605 247.137 217.501 246.764 218.163 246.103C218.824 245.442 219.197 244.545 219.2 243.61V238.54C219.2 237.604 218.828 236.706 218.166 236.044C217.504 235.382 216.606 235.01 215.67 235.01C214.733 235.01 213.836 235.382 213.174 236.044C212.512 236.706 212.14 237.604 212.14 238.54V243.61C212.145 244.544 212.518 245.439 213.179 246.1C213.84 246.761 214.735 247.135 215.67 247.14V247.14Z" stroke="white" stroke-width="2" stroke-miterlimit="10"/>
              <path id="Vector_12" d="M215.67 247.14C216.605 247.137 217.501 246.764 218.163 246.103C218.824 245.442 219.197 244.545 219.2 243.61V238.54C219.2 237.604 218.828 236.706 218.166 236.044C217.504 235.382 216.606 235.01 215.67 235.01C214.733 235.01 213.836 235.382 213.174 236.044C212.512 236.706 212.14 237.604 212.14 238.54V243.61C212.145 244.544 212.518 245.439 213.179 246.1C213.84 246.761 214.735 247.135 215.67 247.14" fill="#A67EE5"/>
            </g>
            <g>
              <path id="Vector_15" d="M140.13 247.14C141.065 247.137 141.961 246.764 142.623 246.103C143.284 245.442 143.657 244.545 143.66 243.61V238.54C143.66 237.604 143.288 236.706 142.626 236.044C141.964 235.382 141.066 235.01 140.13 235.01C139.193 235.01 138.296 235.382 137.634 236.044C136.972 236.706 136.6 237.604 136.6 238.54V243.61C136.602 244.545 136.975 245.442 137.636 246.103C138.298 246.764 139.194 247.137 140.13 247.14V247.14Z" stroke="white" stroke-width="2" stroke-miterlimit="10"/>
              <path id="Vector_14" d="M140.13 247.14C141.065 247.137 141.961 246.764 142.623 246.103C143.284 245.442 143.657 244.545 143.66 243.61V238.54C143.66 237.604 143.288 236.706 142.626 236.044C141.964 235.382 141.066 235.01 140.13 235.01C139.193 235.01 138.296 235.382 137.634 236.044C136.972 236.706 136.6 237.604 136.6 238.54V243.61C136.602 244.545 136.975 245.442 137.636 246.103C138.298 246.764 139.194 247.137 140.13 247.14" fill="#A67EE5"/>
            </g>
            <path id="Vector_17" d="M209.2 149.771H134.7C128.431 149.771 123.35 154.852 123.35 161.121V227.201C123.35 233.469 128.431 238.551 134.7 238.551H209.2C215.468 238.551 220.55 233.469 220.55 227.201V161.121C220.55 154.852 215.468 149.771 209.2 149.771Z" stroke="white" stroke-width="2" stroke-miterlimit="10"/>
            <path id="Vector_16" d="M134.7 238.551H209.2C212.207 238.543 215.09 237.344 217.217 235.217C219.343 233.091 220.542 230.208 220.55 227.201V161.121C220.542 158.113 219.343 155.23 217.217 153.104C215.09 150.977 212.207 149.778 209.2 149.771H134.7C131.692 149.778 128.81 150.977 126.683 153.104C124.556 155.23 123.358 158.113 123.35 161.121V227.201C123.358 230.208 124.556 233.091 126.683 235.217C128.81 237.344 131.692 238.543 134.7 238.551" fill="#A67EE5"/>
            <g>
              <path id="Vector_19" d="M163.039 137.41H195.439C196.521 137.413 197.557 137.844 198.322 138.608C199.086 139.373 199.517 140.409 199.519 141.49V157.49C199.519 157.806 199.394 158.108 199.171 158.332C198.948 158.555 198.645 158.68 198.329 158.68H195.629C195.314 158.68 195.011 158.555 194.788 158.332C194.565 158.108 194.439 157.806 194.439 157.49V143.12C194.439 142.783 194.306 142.46 194.068 142.222C193.829 141.984 193.506 141.85 193.169 141.85H165.309C164.973 141.85 164.65 141.984 164.411 142.222C164.173 142.46 164.039 142.783 164.039 143.12V157.5C164.039 157.816 163.914 158.118 163.691 158.342C163.468 158.565 163.165 158.69 162.849 158.69H160.149C159.834 158.69 159.531 158.565 159.308 158.342C159.085 158.118 158.959 157.816 158.959 157.5V141.5C158.962 140.418 159.392 139.381 160.157 138.615C160.921 137.848 161.957 137.415 163.039 137.41Z" stroke="white" stroke-width="2" stroke-miterlimit="10"/>
              <path id="Vector_18" d="M163.039 137.41H195.439C196.521 137.413 197.557 137.844 198.322 138.608C199.086 139.373 199.517 140.409 199.519 141.49V157.49C199.519 157.806 199.394 158.108 199.171 158.332C198.948 158.555 198.645 158.68 198.329 158.68H195.629C195.314 158.68 195.011 158.555 194.788 158.332C194.565 158.108 194.439 157.806 194.439 157.49V143.12C194.439 142.783 194.306 142.46 194.068 142.222C193.829 141.984 193.506 141.85 193.169 141.85H165.309C164.973 141.85 164.65 141.984 164.411 142.222C164.173 142.46 164.039 142.783 164.039 143.12V157.5C164.039 157.816 163.914 158.118 163.691 158.342C163.468 158.565 163.165 158.69 162.849 158.69H160.149C159.834 158.69 159.531 158.565 159.308 158.342C159.085 158.118 158.959 157.816 158.959 157.5V141.5C158.965 140.418 159.398 139.382 160.164 138.617C160.93 137.853 161.967 137.423 163.049 137.42" fill="#A67EE5"/>
            </g>
            <g>
              <path id="Vector_21" d="M149.12 238.551H223.62C226.628 238.543 229.51 237.344 231.637 235.217C233.764 233.091 234.962 230.208 234.97 227.201V161.121C234.962 158.113 233.764 155.23 231.637 153.104C229.51 150.977 226.628 149.778 223.62 149.771H149.12C146.114 149.781 143.234 150.981 141.109 153.107C138.985 155.234 137.788 158.114 137.78 161.121V227.201C137.79 230.206 138.988 233.085 141.112 235.211C143.236 237.337 146.115 238.537 149.12 238.551V238.551Z" stroke="white" stroke-width="2" stroke-miterlimit="10"/>
              <path id="Vector_20" d="M149.12 238.551H223.62C226.628 238.543 229.51 237.344 231.637 235.217C233.764 233.091 234.962 230.208 234.97 227.201V161.121C234.962 158.113 233.764 155.23 231.637 153.104C229.51 150.977 226.628 149.778 223.62 149.771H149.12C146.114 149.781 143.234 150.981 141.109 153.107C138.985 155.234 137.788 158.114 137.78 161.121V227.201C137.79 230.207 138.99 233.088 141.116 235.215C143.242 237.341 146.123 238.54 149.13 238.551" fill="#A67EE5"/>
            </g>
            <path id="Vector_22" d="M218 170.69H154.75" stroke="white" stroke-width="2" stroke-miterlimit="10" stroke-linecap="round"/>
            <path id="Vector_23" d="M218 194.16H154.75" stroke="white" stroke-width="2" stroke-miterlimit="10" stroke-linecap="round"/>
            <path id="Vector_24" d="M218 217.641H154.75" stroke="white" stroke-width="2" stroke-miterlimit="10" stroke-linecap="round"/>
            <g>
              <path id="Vector_26" d="M131.899 171.94H132.569V216.4H131.899C130.968 216.398 130.076 216.027 129.417 215.37C128.758 214.713 128.385 213.821 128.379 212.89V175.46C128.379 174.527 128.75 173.632 129.41 172.971C130.07 172.311 130.966 171.94 131.899 171.94V171.94Z" stroke="white" stroke-width="2" stroke-miterlimit="10"/>
              <path id="Vector_25" d="M131.899 171.94H132.569V216.4H131.899C130.968 216.398 130.076 216.027 129.417 215.37C128.758 214.713 128.385 213.821 128.379 212.89V175.46C128.379 174.998 128.47 174.54 128.647 174.113C128.824 173.686 129.084 173.298 129.41 172.971C129.737 172.645 130.125 172.385 130.552 172.208C130.979 172.031 131.437 171.94 131.899 171.94" fill="#A67EE5"/>
            </g>
          </g>
          <path id="Vector_27" d="M179.24 137.12L123.65 57.29" stroke="white" stroke-width="2" stroke-linecap="round" stroke-linejoin="round"/>
          <path id="Vector_28" d="M179.24 137.12L160.71 57.29" stroke="white" stroke-width="2" stroke-linecap="round" stroke-linejoin="round"/>
          <path id="Vector_29" d="M197.77 57.29L179.24 137.12" stroke="white" stroke-width="2" stroke-linecap="round" stroke-linejoin="round"/>
          <path id="Vector_30" d="M234.82 57.29L179.24 137.12" stroke="white" stroke-width="2" stroke-linecap="round" stroke-linejoin="round"/>
          <g id="Group_3">
            <path id="Vector_31" d="M179.24 1.7C193.97 1.7106 208.094 7.56827 218.508 17.9861C228.922 28.4039 234.775 42.5297 234.78 57.26C234.78 50.5 226.48 45.01 216.25 45.01C206.02 45.01 197.94 50.36 197.73 57.01C197.73 57.09 197.73 57.18 197.73 57.27C197.73 50.51 189.43 45.02 179.2 45.02C168.97 45.02 160.66 50.51 160.66 57.27C160.66 57.18 160.66 57.1 160.66 57.01C160.44 50.37 152.24 45.01 142.14 45.01C132.04 45.01 123.62 50.5 123.62 57.26C123.619 49.9594 125.056 42.7302 127.849 35.9851C130.642 29.24 134.737 23.1113 139.899 17.949C145.061 12.7867 151.19 8.69206 157.935 5.89886C164.68 3.10567 171.909 1.66869 179.21 1.67001L179.24 1.7ZM179.21 0.0100021C164.038 0.0364672 149.496 6.07792 138.772 16.8098C128.047 27.5417 122.016 42.0882 122 57.26C122 57.478 122.043 57.6939 122.126 57.8953C122.21 58.0967 122.332 58.2797 122.486 58.4338C122.64 58.5879 122.823 58.7102 123.025 58.7936C123.226 58.8771 123.442 58.92 123.66 58.92C123.878 58.92 124.094 58.8771 124.295 58.7936C124.497 58.7102 124.68 58.5879 124.834 58.4338C124.988 58.2797 125.11 58.0967 125.194 57.8953C125.277 57.6939 125.32 57.478 125.32 57.26C125.32 51.42 132.89 46.67 142.19 46.67C151.3 46.67 158.87 51.33 159.05 57.05V57.26C159.05 57.7003 159.225 58.1225 159.536 58.4338C159.848 58.7451 160.27 58.92 160.71 58.92C161.15 58.92 161.572 58.7451 161.884 58.4338C162.195 58.1225 162.37 57.7003 162.37 57.26C162.37 51.42 169.94 46.67 179.24 46.67C188.54 46.67 196.11 51.42 196.11 57.26C196.11 57.7003 196.285 58.1225 196.596 58.4338C196.908 58.7451 197.33 58.92 197.77 58.92C198.21 58.92 198.632 58.7451 198.944 58.4338C199.255 58.1225 199.43 57.7003 199.43 57.26V57.05C199.61 51.32 207.17 46.66 216.29 46.66C225.59 46.66 233.16 51.41 233.16 57.25C233.16 57.6903 233.335 58.1125 233.646 58.4238C233.958 58.7351 234.38 58.91 234.82 58.91C235.26 58.91 235.682 58.7351 235.994 58.4238C236.305 58.1125 236.48 57.6903 236.48 57.25C236.467 42.0739 230.434 27.5228 219.704 16.7898C208.975 6.0568 194.426 0.018534 179.25 0" fill="white"/>
            <path id="Vector_32" d="M179.24 1.69992C189.16 1.69992 197.24 22.5999 197.78 57.0299C197.99 50.3799 206.19 45.0299 216.3 45.0299C226.41 45.0299 234.78 50.5299 234.78 57.2599C234.78 42.5165 228.923 28.377 218.498 17.9519C208.073 7.5267 193.933 1.66992 179.19 1.66992" fill="#E81A5A"/>
            <path id="Vector_33" d="M179.23 1.70043C164.493 1.70043 150.359 7.55342 139.936 17.9724C129.513 28.3913 123.655 42.5232 123.65 57.2604C123.65 50.5004 131.95 45.0104 142.17 45.0104C152.39 45.0104 160.47 50.3604 160.69 57.0104C161.21 22.5804 169.3 1.69043 179.22 1.69043" fill="#FE6183"/>
            <path id="Vector_34" d="M179.24 1.69992C169.31 1.69992 161.24 22.5999 160.7 57.0199C160.7 57.1099 160.7 57.1899 160.7 57.2799C160.7 50.5199 169 45.0299 179.23 45.0299C189.46 45.0299 197.78 50.5299 197.78 57.2599C197.78 57.1699 197.78 57.0899 197.78 56.9999C197.27 22.5699 189.18 1.66992 179.26 1.66992" fill="#F7396B"/>
          </g>
        </g>
      </g>
    </g>
    <g id="flower2">
      <g id="leaf2" transform='translate(268 298)'>
        <g>
          <animateTransform
                attributeName="transform"
                type="rotate"
                values='0;5;-2;3;0'
                keySplines="0.33 0.46 0.51 1;
                  0.33 0.46 0.51 1;
                  0.33 0.46 0.51 1;
                  0.33 0.46 0.51 1"
                calcMode="spline"
                dur="1.5s"
                repeatCount="indefinite"
                additive="sum"/>
          <g transform='translate(-268 -298)'>
            <path id="Vector_9" d="M322.92 283.4C323.203 283.676 323.404 284.025 323.501 284.408C323.598 284.791 323.588 285.193 323.47 285.57C322.41 289 318.89 298.42 311.37 301.91C306.24 304.29 303.04 299.21 300.45 302.68C297.86 306.15 302.55 307.68 307.37 306.99C307.786 306.922 308.214 306.977 308.599 307.149C308.984 307.321 309.311 307.601 309.538 307.957C309.766 308.312 309.885 308.726 309.88 309.148C309.875 309.57 309.746 309.981 309.51 310.33C308.252 312.319 306.524 313.968 304.479 315.131C302.433 316.294 300.132 316.936 297.78 317C286.94 317.27 285.23 305.42 283.21 306.81C280.49 308.7 284.48 313.36 287.6 316.38C287.899 316.667 288.109 317.034 288.206 317.437C288.302 317.84 288.28 318.262 288.143 318.653C288.006 319.045 287.76 319.388 287.433 319.643C287.106 319.897 286.713 320.053 286.3 320.09C277.54 320.93 266.58 316.58 266.5 305.09C266.42 292.15 262.25 293.29 261.39 286.74C260.48 279.86 265.27 271.86 275.13 270.05C275.527 269.978 275.935 270.018 276.31 270.166C276.685 270.314 277.011 270.564 277.252 270.887C277.492 271.211 277.637 271.595 277.67 271.997C277.704 272.399 277.624 272.802 277.44 273.16C275.03 277.89 271.44 285.76 274.62 285.72C278.08 285.72 273.04 263.14 303.05 270.46C303.412 270.55 303.745 270.731 304.016 270.987C304.287 271.243 304.487 271.565 304.597 271.922C304.707 272.278 304.722 272.657 304.642 273.021C304.562 273.385 304.389 273.723 304.14 274L304.04 274.11C303.713 274.473 303.519 274.936 303.489 275.423C303.459 275.91 303.595 276.393 303.874 276.793C304.154 277.193 304.56 277.487 305.028 277.626C305.496 277.765 305.997 277.742 306.45 277.56C310.11 276.04 315.61 276.29 322.92 283.4" fill="#FE6183"/>
          </g>
        </g>
      </g>
    <path id="Vector_10" d="M245.13 327.881C245.13 327.881 248.61 297.771 266.83 297.771" stroke="#FE6183" stroke-width="2" stroke-miterlimit="10" fill-opacity="0"/>
  </g>
</svg>
