<svg xmlns="http://www.w3.org/2000/svg" viewBox="0 0 580 110" fill="none" width="580" height="110">
    <g opacity="0" id="win2" transform="translate(284 54)">
      <animate
        href="#win2"
        attributeName="opacity"
        from="0"
        to="1"
        dur="0.5s"
        fill="freeze"
        calcMode="spline"
        keySplines="0.21 0 0.8 1;"
      />
      <g transform="scale(1.1)">
        <animateTransform
          attributeName="transform"
          type="scale"
          from="1.1"
          to="1"
          dur="0.5s"
          fill="freeze"
          calcMode="spline"
          keySplines="0.33 0 0.67 1"
          additive="replace"/>
        <g transform="translate(-284 -54)">
          <path d="M16,24.44V92H2.6V8H75V92H61.52V24.44H16Z" transform="translate(-2.1 -1.5)" fill="none" stroke="#FFFFFF" id="winWordP" stroke-dashoffset="112" stroke-dasharray="0 224" stroke-width="0.2rem" stroke-linejoin="round"/>
          <animate
            href="#winWordP"
            attributeName="stroke-dashoffset"
            from="112"
            to="224"
            dur="0.5s"
            fill="freeze"
            calcMode="spline"
            keySplines="0.21 0 0.8 1;"
          />
          <animate
            href="#winWordP"
            attributeName="stroke-dasharray"
            from="0 224"
            to="224 0"
            dur="0.5s"
            fill="freeze"
            calcMode="spline"
            keySplines="0.21 0 0.8 1;"
          />
          <path
            d="M148.76,5.6c32.88,0,59.52,19.92,59.52,44.4s-26.64,44.4-59.52,44.4S89.24,74.48,89.24,50,115.88,5.6,148.76,5.6Zm0,72.12c24.48,0,44.4-12.36,44.4-27.72s-19.92-27.84-44.4-27.84C124,22.16,104,34.52,104,50S124,77.72,148.76,77.72Z"
            transform="translate(-2.1 -1.5)" fill="none" stroke="#FFFFFF" id="winWordO" stroke-dashoffset="140" stroke-dasharray="0 279" stroke-width="0.2rem" stroke-linejoin="round"/>
          <animate
            href="#winWordO"
            attributeName="stroke-dashoffset"
            from="140"
            to="279"
            dur="0.5s"
            fill="freeze"
            calcMode="spline"
            keySplines="0.21 0 0.8 1;"
          />
          <animate
            href="#winWordO"
            attributeName="stroke-dasharray"
            from="0 279"
            to="279 0"
            dur="0.5s"
            fill="freeze"
            calcMode="spline"
            keySplines="0.21 0 0.8 1;"
          />
          <path
            d="M287.36,8V24.44H236v14.4h25.32c25.44,0,34,11.16,34,26.52,0,15.6-8.52,26.64-34,26.64H222.56V8h64.8ZM256.88,76.52c15.12,0,23.52-2,23.52-11.52S272,54.44,256.88,54.44H236V76.52h20.88Z"
            transform="translate(-2.1 -1.5)" fill="none" stroke="#FFFFFF" id="winWordB" stroke-dashoffset="129" stroke-dasharray="0 258" stroke-width="0.2rem" stroke-linejoin="round"/>
          <animate
            href="#winWordB"
            attributeName="stroke-dashoffset"
            from="129"
            to="258"
            dur="0.5s"
            fill="freeze"
            calcMode="spline"
            keySplines="0.21 0 0.8 1;"
          />
          <animate
            href="#winWordB"
            attributeName="stroke-dasharray"
            from="0 258"
            to="258 0"
            dur="0.5s"
            fill="freeze"
            calcMode="spline"
            keySplines="0.21 0 0.8 1;"
          />
          <path d="M371.47,8V24.44H320.84V41.6h33.6V58h-33.6V75.56h50.64V92H307.4V8h64.08Z" transform="translate(-2.1 -1.5)"
                fill="none" stroke="#FFFFFF" id="winWordE" stroke-dashoffset="116" stroke-dasharray="0 232" stroke-width="0.2rem" stroke-linejoin="round"/>
          <animate
            href="#winWordE"
            attributeName="stroke-dashoffset"
            from="116"
            to="232"
            dur="0.5s"
            fill="freeze"
            calcMode="spline"
            keySplines="0.21 0 0.8 1;"
          />
          <animate
            href="#winWordE"
            attributeName="stroke-dasharray"
            from="0 232"
            to="232 0"
            dur="0.5s"
            fill="freeze"
            calcMode="spline"
            keySplines="0.21 0 0.8 1;"
          />
          <path
            d="M382.39,110.24V75.56h7.44c4.56-4.68,7.8-18.36,8.76-56L399,8h48.6V75.56h10v34.68H442.87V92H397v18.24H382.39Zm51.72-34.68V24.44H411.55v3.12c-0.48,22.44-3.24,37.68-7.2,48h29.76Z"
            transform="translate(-2.1 -1.5)" fill="none" stroke="#FFFFFF" id="winWordD" stroke-dashoffset="134" stroke-dasharray="0 269" stroke-width="0.2rem" stroke-linejoin="round"/>
          <animate
            href="#winWordD"
            attributeName="stroke-dashoffset"
            from="134"
            to="269"
            dur="0.5s"
            fill="freeze"
            calcMode="spline"
            keySplines="0.21 0 0.8 1;"
          />
          <animate
            href="#winWordD"
            attributeName="stroke-dasharray"
            from="0 269"
            to="269 0"
            dur="0.5s"
            fill="freeze"
            calcMode="spline"
            keySplines="0.21 0 0.8 1;"
          />
          <path
            d="M463.75,92l28-84h27.12l28.08,84H533.47l-7.8-23.52h-37.8L480.07,92H463.75Zm56.64-40L507,11.84,493.51,52h26.88Z"
            transform="translate(-2.1 -1.5)" fill="none" stroke="#FFFFFF" id="winWordA" stroke-dashoffset="108" stroke-dasharray="0 216" stroke-width="0.2rem" stroke-linejoin="round"/>
          <animate
            href="#winWordA"
            attributeName="stroke-dashoffset"
            from="108"
            to="216"
            dur="0.5s"
            fill="freeze"
            calcMode="spline"
            keySplines="0.21 0 0.8 1;"
          />
          <animate
            href="#winWordA"
            attributeName="stroke-dasharray"
            from="0 216"
            to="216 0"
            dur="0.5s"
            fill="freeze"
            calcMode="spline"
            keySplines="0.21 0 0.8 1;"
          />
          <path
            d="M554.12,70.4L555.55,2H569l1.44,68.4H554.12Zm8.28,6.36c4.8,0,8,3.24,8,8.16a8,8,0,1,1-16.08,0C554.35,80,557.59,76.76,562.39,76.76Z"
            transform="translate(-2.1 -1.5)" fill="none" stroke="#FFFFFF" id="winWordMark" stroke-dashoffset="54" stroke-dasharray="0 109" stroke-width="0.2rem" stroke-linejoin="round"/>
          <animate
            href="#winWordMark"
            attributeName="stroke-dashoffset"
            from="54"
            to="109"
            dur="0.5s"
            fill="freeze"
            calcMode="spline"
            keySplines="0.21 0 0.8 1;"
          />
          <animate
            href="#winWordMark"
            attributeName="stroke-dasharray"
            from="0 109"
            to="109 0"
            dur="0.5s"
            fill="freeze"
            calcMode="spline"
            keySplines="0.21 0 0.8 1;"
          />
        </g>
      </g>
    </g>
  </svg>
